<svg width="57" height="57" viewBox="0 0 57 57" fill="none" xmlns="http://www.w3.org/2000/svg">
<path d="M46.2131 35.8663V33.1781V33.1784C46.2203 32.649 46.0465 32.1335 45.7206 31.7163C45.3946 31.2994 44.9365 31.0059 44.4212 30.8847C44.0209 30.7962 43.604 30.8197 43.2163 30.9518C42.486 28.2584 40.9472 25.8534 38.8079 24.0615C38.5657 22.765 38.8494 21.4256 39.5963 20.3387C39.7947 20.0087 39.7851 19.594 39.5713 19.2738C39.3576 18.9538 38.9782 18.7856 38.5972 18.8425C36.0659 19.1697 34.6144 20.3435 33.7991 21.4141V21.4138C32.8478 21.1454 31.8697 20.9819 30.8828 20.9257C30.8663 20.9241 30.8497 20.9241 30.8335 20.9257C32.0251 24.1632 31.7775 27.7554 30.1535 30.7985C28.5291 33.8419 25.6825 36.0472 22.3297 36.8594C18.9769 37.6716 15.4369 37.0135 12.6001 35.0507C12.5832 35.0935 12.5754 35.1392 12.5779 35.1851C12.6617 36.9957 13.1063 38.771 13.8857 40.4076C14.6651 42.0438 15.7633 43.5079 17.1161 44.7141C18.0513 45.5323 18.5926 46.7107 18.6036 47.9532V49.5569C18.6036 49.7948 18.698 50.0226 18.8658 50.1907C19.0339 50.3585 19.2617 50.4529 19.4995 50.4529H24.9382C25.1757 50.4529 25.4036 50.3585 25.5717 50.1907C25.7398 50.0226 25.8342 49.7948 25.8342 49.5569V48.1773H30.1483L30.1486 49.5569C30.1486 49.7948 30.2429 50.0226 30.4108 50.1907C30.5789 50.3585 30.8067 50.4529 31.0445 50.4529H36.4832C36.7207 50.4529 36.9485 50.3585 37.1167 50.1907C37.2848 50.0226 37.3792 49.7948 37.3792 49.5569V48.3294C37.3657 47.0304 37.9223 45.791 38.9023 44.9381C41.0144 43.1478 42.5316 40.7569 43.2523 38.0837C43.6407 38.2144 44.0576 38.2362 44.4576 38.1462C44.9644 38.02 45.4138 37.7259 45.7328 37.3122C46.0516 36.8981 46.221 36.3884 46.2135 35.8659L46.2131 35.8663ZM37.7643 31.1266C37.4077 31.1266 37.0658 30.985 36.814 30.7328C36.5618 30.481 36.4202 30.1391 36.4202 29.7825C36.4202 29.4259 36.5618 29.0844 36.814 28.8322C37.0658 28.58 37.4077 28.4384 37.7643 28.4384C38.1205 28.4384 38.4624 28.58 38.7146 28.8322C38.9665 29.0844 39.1084 29.4259 39.1084 29.7825C39.1084 30.1391 38.9665 30.481 38.7146 30.7328C38.4624 30.985 38.1205 31.1266 37.7643 31.1266ZM20.6643 12.9778C20.6852 11.4168 21.2658 9.91499 22.3005 8.74595C23.3349 7.57691 24.7546 6.81779 26.3015 6.60691C27.8484 6.39597 29.4196 6.74722 30.7293 7.59659C32.039 8.44595 33.0003 9.73755 33.4387 11.2359C33.8768 12.7343 33.7627 14.34 33.1168 15.7615C32.4712 17.1828 31.3368 18.3253 29.9199 18.9809C27.9747 15.6127 24.533 13.3806 20.6639 12.9778H20.6643ZM9.98828 25.0106C9.98828 27.5131 10.982 29.9127 12.7514 31.6822C14.5208 33.4515 16.9208 34.4456 19.423 34.4456C21.9252 34.4456 24.3252 33.4515 26.0946 31.6822C27.864 29.9128 28.858 27.5131 28.858 25.0106C28.858 22.5084 27.864 20.1087 26.0946 18.3393C24.3252 16.5699 21.9252 15.5759 19.423 15.5759C16.9214 15.5781 14.523 16.5731 12.7543 18.3418C10.9852 20.1105 9.99052 22.509 9.98836 25.0105L9.98828 25.0106ZM20.1491 19.4912V20.0915C20.6222 20.1081 21.0925 20.1756 21.5512 20.2931C21.9622 20.4262 22.2197 20.8334 22.1637 21.2618C22.1078 21.6903 21.754 22.0174 21.3228 22.0403C21.2393 22.0406 21.1562 22.0284 21.0762 22.0046C20.64 21.8759 20.1872 21.8109 19.7321 21.8118C18.7331 21.8118 18.4105 22.2599 18.4105 22.6721C18.4105 23.1784 18.948 23.5009 20.2561 23.9937C22.084 24.6387 22.8233 25.4856 22.8233 26.8653C22.8233 28.2453 21.8289 29.3966 20.0683 29.7103V30.5256C20.0683 30.9412 19.7311 31.2781 19.3155 31.2781C18.8999 31.2781 18.563 30.9412 18.563 30.5256V29.8178C17.9389 29.7899 17.3214 29.6799 16.7261 29.4906C16.2802 29.345 16.0224 28.88 16.1349 28.4243V28.3528C16.2352 27.9681 16.5839 27.7006 16.9814 27.7031C17.082 27.7028 17.182 27.7197 17.277 27.7525C17.818 27.9453 18.3874 28.0468 18.9618 28.0525C19.8577 28.0525 20.4358 27.7118 20.4358 27.0981C20.4358 26.4843 19.943 26.1437 18.8052 25.754C17.1611 25.203 16.0411 24.4324 16.0411 22.9405C16.0411 21.5965 16.9955 20.5258 18.6395 20.2033L18.6389 19.4912C18.6389 19.0755 18.9761 18.7387 19.3917 18.7387C19.8073 18.7387 20.1442 19.0755 20.1442 19.4912L20.1491 19.4912Z" fill="url(#paint0_linear_129_568)"/>
<defs>
<linearGradient id="paint0_linear_129_568" x1="43.8965" y1="28.1149" x2="9.09059" y2="28.4446" gradientUnits="userSpaceOnUse">
<stop stop-color="#E34804"/>
<stop offset="1" stop-color="#F3913B"/>
</linearGradient>
</defs>
</svg>
