<svg width="31" height="45" viewBox="0 0 31 45" fill="none" xmlns="http://www.w3.org/2000/svg">
<path d="M20.0108 9.89265C20.9749 8.32609 22.0568 6.55105 21.9371 4.55233C21.8386 2.89481 20.6918 1.21017 19.034 1.01329C17.5646 0.852044 16.2027 1.87361 14.733 2.03489C12.9417 2.24552 9.97428 0.763293 8.63116 2.67114C7.64956 4.06274 8.71209 6.06706 10.1364 9.89298L20.0108 9.89265Z" fill="#F4B11A"/>
<path d="M12.9805 26.1952C12.9805 27.1721 13.717 27.4708 14.7045 27.7805V24.7495C13.8033 24.8283 12.9805 25.288 12.9805 26.1951V26.1952Z" fill="#F4B11A"/>
<path d="M15.8535 30.2334V33.3862C16.7988 33.2912 17.7217 32.8306 17.7217 31.8803C17.7217 30.86 16.9104 30.5424 15.8535 30.2334Z" fill="#F4B11A"/>
<path d="M21.5166 13.271C20.9419 13.5788 20.4947 13.4438 19.8231 13.4769C20.2441 14.6022 20.95 15.2794 20.5669 16.3441C20.2591 17.1541 19.3881 17.6982 18.4165 17.4551C18.3872 17.5448 18.7294 19.9101 16.6247 19.9101C15.63 19.9101 14.8329 19.1126 14.8329 18.1183V13.477C9.94815 13.3851 9.60791 13.692 8.82975 13.1814C3.66879 16.2904 0.09375 23.1182 0.09375 31.0478C0.09375 41.907 6.81375 44.0038 15.1018 44.0038C23.3809 44.0038 30.1098 41.9072 30.1098 31.0478C30.1091 23.19 26.5879 16.4166 21.5161 13.271L21.5166 13.271ZM15.8531 35.2606V36.5216H14.7034V35.2428C13.0625 35.0797 11.5897 34.4432 10.2844 33.3341L11.5957 31.81C12.6019 32.6625 13.6378 33.17 14.7035 33.3341V29.9354C12.467 29.4148 10.7873 28.6982 10.7873 26.4057C10.7873 24.2379 12.5473 22.9844 14.7035 22.876V22.0001H15.8532V22.8932C17.1704 22.9873 18.4157 23.4248 19.5894 24.2076L18.4216 25.8192C17.6316 25.2705 16.775 24.9317 15.8532 24.8027V28.0958H15.9073C18.1785 28.6164 19.9125 29.383 19.9125 31.7133C19.9125 33.9468 18.0688 35.1549 15.8532 35.2608L15.8531 35.2606Z" fill="#F4B11A"/>
<path d="M21.131 11.6879C21.131 11.4404 20.9307 11.2397 20.6829 11.2397L9.81727 11.2401C9.56976 11.2401 9.36914 11.4404 9.36914 11.6882C9.36914 11.9357 9.56945 12.1363 9.81727 12.1363H16.172V18.121C16.172 18.3685 16.3723 18.5692 16.6201 18.5692C16.8676 18.5692 17.0682 18.3689 17.0682 18.121V12.8523L18.4742 15.9114C18.5773 16.136 18.8435 16.2345 19.0682 16.131C19.2932 16.0279 19.3914 15.7617 19.2879 15.537L17.7248 12.1367H20.6826C20.9301 12.136 21.1308 11.9357 21.1308 11.6879L21.131 11.6879Z" fill="#F4B11A"/>
</svg>
